<svg xmlns="http://www.w3.org/2000/svg" viewBox="0 0 96 96">
  <defs>
    <linearGradient id="bg" x1="0" y1="0" x2="0" y2="1"><stop offset="0" stop-color="#52b2ff"/><stop offset="1" stop-color="#1c86dc"/></linearGradient>
    <filter id="sh" x="-20%" y="-20%" width="140%" height="140%"><feDropShadow dx="0" dy="1.5" stdDeviation="1.5" flood-color="#000" flood-opacity=".22"/></filter>
  </defs>
  <rect x="4" y="4" width="88" height="88" rx="21" fill="url(#bg)"/>
  <rect x="4.5" y="4.5" width="87" height="87" rx="20.5" fill="none" stroke="#fff" stroke-opacity=".28"/>
  <rect x="4" y="4" width="88" height="88" rx="21" fill="none" stroke="#000" stroke-opacity=".12"/>
  <g transform="translate(20 20) scale(2.3333)" fill="#ffffff" filter="url(#sh)"><path d="M22 8.608V16.75C22 18.483 20.6435 19.8992 18.9344 19.9949L18.75 20H5.25C3.51697 20 2.10075 18.6435 2.00514 16.9344L2 16.75V8.608L11.652 13.6644C11.87 13.7785 12.13 13.7785 12.348 13.6644L22 8.608ZM5.25 4H18.75C20.4347 4 21.8201 5.28191 21.9838 6.92355L12 12.1533L2.01619 6.92355C2.17386 5.34271 3.46432 4.09545 5.06409 4.00523L5.25 4H18.75H5.25Z" fill="#ffffff"/></g>
</svg>
