<svg xmlns="http://www.w3.org/2000/svg" viewBox="0 0 96 96">
  <defs>
    <linearGradient id="bg" x1="0" y1="0" x2="0" y2="1"><stop offset="0" stop-color="#43b884"/><stop offset="1" stop-color="#1d875a"/></linearGradient>
    <filter id="sh" x="-20%" y="-20%" width="140%" height="140%"><feDropShadow dx="0" dy="1.5" stdDeviation="1.5" flood-color="#000" flood-opacity=".22"/></filter>
  </defs>
  <rect x="4" y="4" width="88" height="88" rx="21" fill="url(#bg)"/>
  <rect x="4.5" y="4.5" width="87" height="87" rx="20.5" fill="none" stroke="#fff" stroke-opacity=".28"/>
  <rect x="4" y="4" width="88" height="88" rx="21" fill="none" stroke="#000" stroke-opacity=".12"/>
  <g transform="translate(20 20) scale(2.3333)" fill="#ffffff" filter="url(#sh)"><path d="M7.9981 4.81638C8.58637 3.17468 10.1553 2 12 2C13.8447 2 15.4136 3.17468 16.0019 4.81638C17.9907 5.17156 19.5 6.90933 19.5 9C19.5 9.36664 19.4534 9.7231 19.3657 10.0634C20.6405 10.7966 21.5 12.1722 21.5 13.75C21.5 15.9526 19.8249 17.7633 17.6786 17.9786C17.6214 17.9926 17.5615 18 17.5 18H14.5V20.25C14.5 21.2165 13.7165 22 12.75 22H11.25C10.2835 22 9.5 21.2165 9.5 20.25V18H6.5C6.43845 18 6.37864 17.9926 6.3214 17.9786C4.17511 17.7633 2.5 15.9526 2.5 13.75C2.5 12.1722 3.35949 10.7966 4.63432 10.0634C4.54659 9.72309 4.5 9.36664 4.5 9C4.5 6.90934 6.00929 5.17156 7.9981 4.81638ZM11 18V20.25C11 20.3881 11.1119 20.5 11.25 20.5H12.75C12.8881 20.5 13 20.3881 13 20.25V18H11Z" fill="#ffffff"/></g>
</svg>
