<svg xmlns="http://www.w3.org/2000/svg" viewBox="0 0 96 96">
  <defs>
    <linearGradient id="bg" x1="0" y1="0" x2="0" y2="1"><stop offset="0" stop-color="#b07ae6"/><stop offset="1" stop-color="#7443b3"/></linearGradient>
    <filter id="sh" x="-20%" y="-20%" width="140%" height="140%"><feDropShadow dx="0" dy="1.5" stdDeviation="1.5" flood-color="#000" flood-opacity=".22"/></filter>
  </defs>
  <rect x="4" y="4" width="88" height="88" rx="21" fill="url(#bg)"/>
  <rect x="4.5" y="4.5" width="87" height="87" rx="20.5" fill="none" stroke="#fff" stroke-opacity=".28"/>
  <rect x="4" y="4" width="88" height="88" rx="21" fill="none" stroke="#000" stroke-opacity=".12"/>
  <g transform="translate(20 20) scale(2.3333)" fill="#ffffff" filter="url(#sh)"><path d="M3 5.25C3 4.01 4 3 5.25 3h9.5C15.99 3 17 4 17 5.25V14h4v3.75c0 1.8-1.46 3.25-3.25 3.25H6.25A3.25 3.25 0 0 1 3 17.75zM17 19.5h.75c.97 0 1.750-.78 1.75-1.75V15.5H17zM6.5 7.75c0 .41.34.75.75.75h5.5a.75.75 0 0 0 0-1.5h-5.5a.75.75 0 0 0-.75.75M7.25 11a.75.75 0 0 0 0 1.5h5.5a.75.75 0 0 0 0-1.5zm-.75 4.75c0 .41.34.75.75.75h3a.75.75 0 0 0 0-1.5h-3a.75.75 0 0 0-.75.75" fill="#ffffff" fill-rule="evenodd"/></g>
</svg>
